<svg xmlns="http://www.w3.org/2000/svg" viewBox="0 0 512 512" width="40" height="40">
	<style>
		tspan { white-space:pre }
		.shp0 { fill: #4a1d93 } 
	</style>
	<path id="Layer" fill-rule="evenodd" class="shp0" d="M504 256C504 393 393 504 256 504C119 504 8 393 8 256C8 119 119 8 256 8C393 8 504 119 504 256ZM472 256C472 136.1 374.7 40 256 40C136.1 40 40 137.3 40 256C40 375.9 137.3 472 256 472C375.9 472 472 374.7 472 256ZM350.8 186.7L281.5 256L350.8 325.3C355.5 330 355.5 337.6 350.8 342.3L342.3 350.8C337.6 355.5 330 355.5 325.3 350.8L256 281.5L186.7 350.8C182 355.5 174.4 355.5 169.7 350.8L161.2 342.3C156.5 337.6 156.5 330 161.2 325.3L230.5 256L161.2 186.7C156.5 182 156.5 174.4 161.2 169.7L169.7 161.2C174.4 156.5 182 156.5 186.7 161.2L256 230.5L325.3 161.2C330 156.5 337.6 156.5 342.3 161.2L350.8 169.7C355.4 174.4 355.4 182 350.8 186.7Z" />
</svg>