<svg xmlns="http://www.w3.org/2000/svg" width="596" height="367" viewBox="0 0 596 367">
    <defs>
        <style>
            .cls-1{fill:#8b77e6}.cls-2{fill:#d1d2fd}.cls-11,.cls-12,.cls-13,.cls-17,.cls-18,.cls-19,.cls-2,.cls-20,.cls-23,.cls-4,.cls-7,.cls-8,.cls-9{fill-rule:evenodd}.cls-3,.cls-4{fill:#bbbbf6}.cls-7{fill:#dedffd}.cls-8{fill:#443572}.cls-9{fill:#31275b}.cls-11{fill:#e76d60}.cls-12{fill:#fff}.cls-13{fill:#fcb187}.cls-17{fill:#ded8f9}.cls-18{fill:#f1effd}.cls-19{fill:#f16400}.cls-20{fill:#e8bc9e}.cls-23{fill:#938aca}.cls-25{fill:#c9c0ed}
        </style>
    </defs>
    <g id="Group_91" transform="translate(-55.968 -55.222)">
        <path id="Path_193" d="M627.3 174.493a.666.666 0 0 1 1.332 0v2.987a.666.666 0 1 1-1.332 0zm-4.521 2.425a.664.664 0 1 1 .939-.94l2.111 2.113a.664.664 0 1 1-.938.939zm-1.487 4.915a.662.662 0 1 1 0-1.324h2.986a.662.662 0 0 1 0 1.324zm2.426 4.521a.661.661 0 1 1-.939-.932l2.112-2.112a.653.653 0 0 1 .938 0 .667.667 0 0 1 0 .94zm4.914 1.486a.666.666 0 1 1-1.332 0v-2.98a.666.666 0 1 1 1.332 0zm4.521-2.418a.661.661 0 1 1-.939.932l-2.112-2.1a.667.667 0 0 1 0-.94.655.655 0 0 1 .939 0zm1.486-4.914a.662.662 0 1 1 0 1.324h-2.988a.662.662 0 0 1 0-1.324zm-2.425-4.531a.664.664 0 1 1 .939.94l-2.112 2.112a.664.664 0 1 1-.939-.939z" class="cls-1" transform="translate(-37.314 -7.949)"/>
        <path id="Path_194" d="M164.087 55.222a74.093 74.093 0 0 0-73.917 73.842 74.091 74.091 0 0 0 73.917 73.836 14.872 14.872 0 0 1 14.837 14.819 14.866 14.866 0 0 1-14.837 14.819h-38.678a36.15 36.15 0 0 0-36.065 36.026 36.147 36.147 0 0 0 36.065 36.015 31.263 31.263 0 0 1 31.191 31.153 57.04 57.04 0 0 0 56.9 56.844h334.05a74.1 74.1 0 0 0 73.919-73.844 74.1 74.1 0 0 0-73.922-73.832h-52.129a14.876 14.876 0 0 1-14.835-14.819 14.872 14.872 0 0 1 14.835-14.821h13.243a36.148 36.148 0 0 0 36.062-36.024 36.143 36.143 0 0 0-36-36.016H504.9a31.262 31.262 0 0 1-31.19-31.153 57.041 57.041 0 0 0-56.91-56.845z" class="cls-2" transform="translate(-2.159)"/>
        <path id="Path_195" d="M626 222.828a35.78 35.78 0 1 0-35.779-35.78A35.78 35.78 0 0 0 626 222.828z" class="cls-2" transform="translate(-35.347 -6.479)"/>
        <g id="Group_76" transform="translate(124.346 95.573)">
            <path id="Rectangle_22" d="M0 0H34.663V10.504H0z" class="cls-3" transform="translate(51.482)"/>
            <path id="Rectangle_23" d="M0 0H34.672V10.505H0z" class="cls-3" transform="translate(0 12.609)"/>
            <path id="Rectangle_24" d="M0 0H34.664V10.505H0z" class="cls-3" transform="translate(36.319 12.609)"/>
            <path id="Rectangle_25" d="M0 0H34.664V10.506H0z" class="cls-3" transform="translate(15.164 25.21)"/>
            <path id="Rectangle_26" d="M0 0H34.672V10.506H0z" class="cls-3" transform="translate(0 37.819)"/>
            <path id="Rectangle_27" d="M0 0H34.664V10.506H0z" class="cls-3" transform="translate(36.319 37.819)"/>
        </g>
        <path id="Rectangle_28" d="M0 0H34.672V10.498H0z" class="cls-3" transform="translate(198.11 325.458)"/>
        <path id="Rectangle_29" d="M0 0H34.671V10.498H0z" class="cls-3" transform="translate(234.378 325.458)"/>
        <path id="Rectangle_30" d="M0 0H34.664V10.504H0z" class="cls-3" transform="translate(182.976 338.03)"/>
        <path id="Rectangle_31" d="M0 0H34.664V10.504H0z" class="cls-3" transform="translate(219.243 338.03)"/>
        <path id="Rectangle_32" d="M0 0H34.671V10.506H0z" class="cls-3" transform="translate(234.378 350.458)"/>
        <path id="Rectangle_33" d="M0 0H34.664V10.506H0z" class="cls-3" transform="translate(182.976 363.059)"/>
        <path id="Rectangle_34" d="M0 0H34.664V10.506H0z" class="cls-3" transform="translate(219.243 363.059)"/>
        <g id="Group_79" transform="translate(227.437 108.246)">
            <path id="Path_196" d="M269.939 89.321h152.6c3.895 0 7.076 1.546 7.076 3.432v105.563h5.428c2.61 0 4.748 1.041 4.748 2.307v9.426c0 1.266-2.137 2.3-4.748 2.3h-177.61c-2.609 0-4.747-1.036-4.747-2.3v-9.426c0-1.266 2.137-2.307 4.747-2.307h5.429V92.753c0-1.885 3.188-3.432 7.076-3.432z" class="cls-4" transform="translate(-240.502 1.761)"/>
            <path id="Path_197" fill="#f4f5f9" fill-rule="evenodd" d="M266.486 87.569h152.6c3.895 0 7.075 1.663 7.075 3.7V206.83c0 2.032-3.18 3.7-7.075 3.7h-152.6c-3.895 0-7.076-1.663-7.076-3.7V91.264c0-2.032 3.181-3.7 7.076-3.7z" transform="translate(-240.937 1.875)"/>
            <path id="Rectangle_35" fill="#645193" d="M0 0H140.888V92.233H0z" transform="translate(31.404 100.216)"/>
            <path id="Path_200" d="M253.277 327.852h177.609c2.609 0 4.744.77 4.744 1.711v7.007c0 .941-2.135 1.714-4.744 1.714H253.277c-2.61 0-4.747-.773-4.747-1.714v-7.007c0-.941 2.136-1.711 4.747-1.711z" class="cls-7" transform="translate(-240.233 -125.885)"/>
            <g id="Group_78">
                <path id="Path_201" d="M350.422 230.771l-1.839.193-1.133-.04-1.132-.049-1.815-.337-10.377-10.618-23.853 10.505c.73 37.49-3.188 55.08-7.791 80.925h72.468c.1-11.133 4.587-27.62 5.526-36.567l4.081-41.436L361.6 221z" class="cls-8" transform="translate(-243.724 -118.902)"/>
                <path id="Path_202" d="M358.427 311.426h13.083a42.818 42.818 0 0 1 7.365-5.238c1.037-10.593 4.417-23.7 5.221-31.329l.113-1.175q-.435-4.287-.966-9.267c-1.315-12.3 1.543-20.488 4.379-25.364l.555-5.63-22.955-12.352-3.614 3.164-1.245 5.927s12.409 9.574 13.912 14.81-3.743 41.274-7.479 56.829c-.916 3.809-4.1 6.989-8.368 9.623z" class="cls-9" transform="translate(-247.344 -118.976)"/>
                <path id="Path_203" d="M310.612 232.767c.379 23.035-1.027 38.487-3.26 53.168s12.175-45.539 10.826-46.784c-1.053-.972-2.369-2.063-7.567-6.384z" class="cls-9" transform="translate(-244.039 -119.733)"/>
                <path id="Path_204" fill="#b1aec1" fill-rule="evenodd" d="M362.84 218a30.222 30.222 0 0 0-25.194-1l1.318 3.983 22.255.876z" transform="translate(-245.999 -118.566)"/>
                <path id="Path_205" d="M352.6 230.846l-1.839.193-2.264-.089-1.815-.337-6.972-7.133-1.091.29-2.442 2.964s4.8 12.44 5.093 12.866.834.658 1.67-.273 3.446-3.992 3.446-3.992.755-.73 1.061.145 4.128-1.341 4.128-1.341l.234.834s.594-.666 1.123.25 3.133 4.875 3.318 5.052 1 .788 1.639-.393c.57-1.085 7.412-14.931 8.6-17.348l-2.707-1.462z" class="cls-9" transform="translate(-245.904 -118.976)"/>
                <path id="Path_206" d="M352.939 231.457l-1.839.193-2.264-.089-1.815-.337-.691-.706-1.63 2.569s3.358 1.236 3.237 4.216l-6.554 74.733H345l6.554-74.588c.257-2.971 3.558-3.952 3.558-3.952l-1.422-2.691z" class="cls-9" transform="translate(-246.241 -119.587)"/>
                <path id="Path_207" d="M351.145 198.59a9.6 9.6 0 0 1 9.18 9.934l-.5 12.642a9.6 9.6 0 0 1-9.935 9.18 9.6 9.6 0 0 1-9.18-9.935l.5-12.642a9.6 9.6 0 0 1 9.935-9.18z" class="cls-11" transform="translate(-246.197 -117.521)"/>
                <path id="Path_208" d="M348.153 230.353l1.1-.136a1.1 1.1 0 0 1 .224.634c.016.393-.007 1.558-.007 1.558-.41.128-2.571.483-2.491.177.017-.073 1.173-2.233 1.173-2.233z" class="cls-9" transform="translate(-246.603 -119.568)"/>
                <path id="Path_209" d="M352.889 230.535l-1.084-.224a1.116 1.116 0 0 0-.273.619c-.048.393-.121 1.55-.121 1.55.394.328 2.531.683 2.474.377-.016-.072-1-2.321-1-2.321z" class="cls-9" transform="translate(-246.89 -119.574)"/>
                <path id="Path_210" d="M363.758 218.229c.122.111 1.382 2.537 2.041 3.709a3.081 3.081 0 0 1 .072 2.522c-.529 1.566-7.188 14.279-7.188 14.279s-.466.675-1.141-.024-5.71-9.187-5.71-9.187l10.578-10.313c.5-.585 1.236-1.1 1.348-.987z" class="cls-12" transform="translate(-246.917 -118.791)"/>
                <path id="Path_211" d="M337.457 217.165c-.088.039-1.582 2.425-2.329 3.541a3.09 3.09 0 0 0-.265 2.514c.41 1.6 6.039 14.8 6.039 14.8s.411.7 1.14.056 6.418-8.706 6.418-8.706l-9.735-11.116c-.65-.827-1.189-1.132-1.269-1.092z" class="cls-12" transform="translate(-245.811 -118.723)"/>
                <path id="Path_212" d="M331.254 185.839c-.145 0-.29 0-.434.007h-.008a5.843 5.843 0 1 0 4.65 1.864c-.1 1.727-.675 3.791-2.884 3.686l.546-3.317a2 2 0 0 0-1.871-2.241z" class="cls-11" transform="translate(-245.204 -116.697)"/>
                <path id="Path_213" d="M375.679 192.3c.138.04.274.089.41.137h.009a5.832 5.832 0 1 1-4.988.457c-.394 1.687-.434 3.832 1.71 4.362l.427-3.342a2 2 0 0 1 2.433-1.614z" class="cls-11" transform="translate(-247.979 -117.113)"/>
                <path id="Path_214" d="M356.641 158.234a20.024 20.024 0 0 0-22.624 16.892l-2.61 17.974a20.017 20.017 0 0 0 16.89 22.625 20.021 20.021 0 0 0 22.624-16.89l2.61-17.967a20.036 20.036 0 0 0-16.89-22.633z" class="cls-13" transform="translate(-245.582 -114.897)"/>
                <path id="Path_215" fill="#f49677" fill-rule="evenodd" d="M345.784 215.75a19.808 19.808 0 0 0 2.787.61 20.021 20.021 0 0 0 22.629-16.89l2.611-17.967a19.752 19.752 0 0 0-.891-9.357c-7.983-2.377-14.785-4.288-14.785-4.288s-25.171-.024-22.48 6.931l.715 1.157a6.752 6.752 0 0 1 6.016-1.044c3.854.94 16.641 4.265 20.866 5.831s5.349 4.715 4.714 8.979-.193 5.943.86 6.65c0 0-1.622 19.389-23.035 19.389z" transform="translate(-245.857 -115.533)"/>
                <path id="Path_216" d="M346.261 203.495a5.167 5.167 0 0 0 10.16 1.887h-.007a.9.9 0 0 0-.715-1.043l-8.384-1.559a.9.9 0 0 0-1.045.715z" class="cls-12" transform="translate(-246.551 -117.792)"/>
                <path id="Path_217" d="M347.5 208.075a5.177 5.177 0 0 0 5.806 1.453 3.205 3.205 0 0 0-2.553-2.417 3.268 3.268 0 0 0-3.253.963z" class="cls-12" transform="translate(-246.637 -118.067)"/>
                <path id="Path_218" d="M355.924 204.38l-7.887-1.462a1.812 1.812 0 0 0 .506 2.1c.666.362 6.4 1.277 6.891.9a3.093 3.093 0 0 0 .49-1.542z" class="cls-12" transform="translate(-246.663 -117.802)"/>
                <path id="Path_219" d="M364.158 201.371a2.629 2.629 0 1 0 2.161 3.02 2.636 2.636 0 0 0-2.161-3.02z" class="cls-11" transform="translate(-247.517 -117.699)"/>
                <path id="Path_220" d="M340.329 197.447a2.629 2.629 0 1 0 2.161 3.02 2.638 2.638 0 0 0-2.161-3.02z" class="cls-11" transform="translate(-245.975 -117.445)"/>
                <path id="Path_221" d="M344.01 194.394a1.86 1.86 0 0 0-.353-1.374 1.829 1.829 0 0 0-1.213-.723 1.843 1.843 0 0 0-2.1 1.567.71.71 0 0 1-1.4-.21 3.312 3.312 0 0 1 1.277-2.152 3.271 3.271 0 0 1 2.425-.61 3.223 3.223 0 0 1 2.153 1.277 3.278 3.278 0 0 1 .618 2.425.718.718 0 0 1-.811.6.709.709 0 0 1-.595-.8zm20.352 2.955a1.827 1.827 0 0 0-.345-1.373 1.846 1.846 0 0 0-3.309.844.711.711 0 1 1-1.406-.21 3.266 3.266 0 1 1 6.465.941.71.71 0 0 1-1.4-.2zm1.55-6.369a5.189 5.189 0 0 0-4.819-.721.716.716 0 0 1-.932-.386.708.708 0 0 1 .385-.923 6.629 6.629 0 0 1 6.168.867.71.71 0 0 1 .177.989.7.7 0 0 1-.98.175zm-25.226-3.662a.707.707 0 1 1-.45-1.341 6.636 6.636 0 0 1 6.167.916.711.711 0 0 1 .1 1 .7.7 0 0 1-1 .1 5.183 5.183 0 0 0-4.818-.674z" class="cls-9" transform="translate(-246.083 -116.681)"/>
                <path id="Path_222" d="M331.907 189.722s3.124-.772 3.863-5.822.546-3.815.932-6.449 2.884-6.988 8.233-6.209 9.63 1.4 9.63 1.4 4.281.618 9.63 1.4 6.505 5.662 6.12 8.3-.2 1.39-.932 6.449 2.04 6.683 2.04 6.683c.585-4.008 2.031-5.4 2.031-5.4s.779-5.366 1.463-10.056.282-11.171-5.245-16.392a23.866 23.866 0 0 0-27.026-3.92c-6.779 3.421-9.012 9.534-9.694 14.224l-1.462 10.048s1 1.75.418 5.758z" class="cls-9" transform="translate(-245.601 -114.845)"/>
                <path id="Path_223" d="M345.6 170.806a20.179 20.179 0 0 0 22.529 4.055s5.791-3.413 7.59-.8c0 0 4.04-10.562-5.044-13.292 0 0 2.088-1.045 1.967-2.4s-3.116-5.428-12.48-3.389c0 0 .313-3.365-2.691-4.338s-13.011 2.426-15.4 9.3c0 0-1.944 5.052 3.525 10.866z" class="cls-8" transform="translate(-246.264 -114.409)"/>
                <path id="Path_224" fill="#4f4d6e" fill-rule="evenodd" d="M376.654 167.484a9.1 9.1 0 0 0-.314-1.462c-2.618 1.374-8.232 3.253-16.953.98-7.711-2-8.337-9.759-7.662-15.477a18.119 18.119 0 0 0-7.767 5.365c.016 2.8 1.453 6.874 7.8 11.164 8.987 6.064 20.352 1.655 24.9-.57z" transform="translate(-246.408 -114.476)"/>
                <path id="Path_225" d="M254.6 143.016l.032 1.534a2.676 2.676 0 0 1 1.309 1.511 16.966 16.966 0 0 1 .819 2.161l8.015-2.909.033-.626-.635-1.911a.581.581 0 0 1 .008-.571l-4.064-1.791z" class="cls-13" transform="translate(-240.626 -113.758)"/>
                <path id="Path_226" d="M329.57 215.683s-38.35-20.046-44.43-26.858-8.924-16.335-18.2-43.578c0 0-.337-1.269-2.3-1.134s-7.5 2.08-8.256 3.013a3.508 3.508 0 0 0-.908 3.164c.273 1.285 11.212 43.708 14.313 50.052s31.177 32.447 37.016 38.535 22.769-23.195 22.769-23.195z" class="cls-8" transform="translate(-240.677 -113.996)"/>
                <path id="Path_227" d="M263.021 144.424c-2.449.6-6.039 1.984-6.642 2.723a3.508 3.508 0 0 0-.908 3.164c.273 1.285 11.212 43.708 14.313 50.052s31.177 32.446 37.016 38.537c1.823 1.9 4.731.345 7.871-2.691.257-1.6.329-2.6.145-2.771-1.35-1.245-3.141-2.7-13.011-10.922s-25.2-22.36-27.741-27.589-10.4-32.9-12.939-41.2c-2.449-7.984 1.583-9.22 1.9-9.3z" class="cls-9" transform="translate(-240.677 -114.017)"/>
                <path id="Path_228" d="M265.3 132.04a11.927 11.927 0 0 1 2.892-5.814c.891-.94-3.39-3.543-5.06.971 0 0-1.51 1.7-2.378 1.206s-2.233-13.7-2.385-15.141a1.518 1.518 0 0 0-2.273-1.139c-.442.41-.2 2.5-.073 5.155s.24 5.671.008 5.935-.835.266-1.469-1.164-3.864-9.468-4.578-9.863-2.032.338-1.912 1.686 3.687 9.333 3.815 10.5-1.028 1.116-1.55.482-5.6-8.746-6.256-9.139-1.976.4-1.486 1.766 5.027 9.332 5 10.008-.908 1.18-2.386.136-4.3-3.557-4.858-3.582-1.261 1.664.055 3.005 4.466 4.778 4.867 5.348c2.12 3 3.213 6.3 5.2 8.418a6.967 6.967 0 0 0 2.691 1.727 10.081 10.081 0 0 0 7.975-.522c4.136-2.241 3.4-5.839 4.168-9.976z" class="cls-13" transform="translate(-239.66 -111.914)"/>
                <path id="Path_229" d="M333.826 325.188l-2.538 2.169h-21.163s.819-2.62 2.208-3.438a3.219 3.219 0 0 1 1.253-.265 4.428 4.428 0 0 1 1.639-1.268 75.018 75.018 0 0 1 8.5-2.057c2.586-.45 5.084.449 6.322.449a29.176 29.176 0 0 0 3.14-.265z" class="cls-13" transform="translate(-244.219 -125.39)"/>
                <path id="Path_230" d="M386.515 234.278s3.895 2.746 5.759 11.043 6.586 50.478 7.477 57.8.6 18.673-15.548 18.673h-51.452v-7.526a2.388 2.388 0 0 1 2.579-2.658c1.309 0 40.609-4.266 42.478-4.786s2.764-1.568 2.837-3.816-6.353-28.189-7.7-37.908 4.336-31.106 13.574-30.826z" class="cls-8" transform="translate(-245.682 -119.83)"/>
                <path id="Path_231" d="M400.031 311.742c.154 6.94-2.161 15.068-15.828 15.068h-51.452v-5.91c1.262 1.575 3.792 3.373 8.747 3.373h40.534c6.2 0 17.775-4.488 18-12.528z" class="cls-9" transform="translate(-245.682 -124.842)"/>
                <path id="Path_232" d="M375.707 265.1c.915 6.57 4.144 20.559 6.12 29.627a77.782 77.782 0 0 1 1.583 8.281c-.064 2.064-.828 3.116-2.4 3.679 3.895-.643 5.213-2.465 5.878-4.932.579-2.1.065-10.913-1.573-27.219q-.435-4.287-.966-9.267c-1.315-12.3 1.543-20.488 4.379-25.364a26.4 26.4 0 0 1 2.473-3.574 9.692 9.692 0 0 0-1.918-2.057c-9.238-.281-14.915 21.108-13.574 30.826z" class="cls-9" transform="translate(-248.449 -119.83)"/>
                <path id="Path_233" fill="#fcccb1" fill-rule="evenodd" d="M348.7 199.844s1.758-1.832 2.321-2.321.674.072.611.8.12 2.136-.274 2.465-2.336 0-2.746-.168.088-.778.088-.778z" transform="translate(-246.698 -117.441)"/>
            </g>
        </g>
        <path id="Path_234" d="M210.118 244.2a.583.583 0 1 1 1.165 0v2.627a.583.583 0 1 1-1.165 0zm-3.982 2.136a.591.591 0 0 1 0-.828.578.578 0 0 1 .827 0l1.855 1.857a.577.577 0 0 1 0 .827.59.59 0 0 1-.827 0zm-1.309 4.321a.586.586 0 0 1 0-1.173h2.625a.586.586 0 0 1 0 1.173zm2.136 3.977a.582.582 0 0 1-.827-.82l1.855-1.864a.592.592 0 0 1 .827 0 .578.578 0 0 1 0 .828zm4.321 1.308a.583.583 0 1 1-1.165 0v-2.625a.583.583 0 1 1 1.165 0zm3.983-2.128a.583.583 0 0 1-.828.82l-1.855-1.857a.582.582 0 0 1 .819-.828zm1.3-4.33a.586.586 0 1 1 0 1.173h-2.626a.586.586 0 0 1 0-1.173zm-2.129-3.976a.579.579 0 0 1 .828 0 .593.593 0 0 1 0 .828l-1.866 1.854a.582.582 0 0 1-.819-.827z" class="cls-1" transform="translate(-9.779 -12.623)"/>
        <g id="Group_80" transform="translate(85.29 332.528)">
            <path id="Path_235" d="M88.418 352.428h3.3a1.106 1.106 0 0 1 1.1 1.1v3.311a1.107 1.107 0 0 1-1.1 1.1h-3.3a1.1 1.1 0 0 1-1.1-1.1v-3.311a1.1 1.1 0 0 1 1.1-1.1z" class="cls-17" transform="translate(-87.318 -352.428)"/>
            <path id="Path_236" d="M100.483 352.428h3.309a1.106 1.106 0 0 1 1.1 1.1v3.311a1.107 1.107 0 0 1-1.1 1.1h-3.309a1.107 1.107 0 0 1-1.1-1.1v-3.311a1.106 1.106 0 0 1 1.1-1.1z" class="cls-17" transform="translate(-88.099 -352.428)"/>
            <path id="Path_237" d="M112.548 352.428h3.308a1.106 1.106 0 0 1 1.1 1.1v3.311a1.107 1.107 0 0 1-1.1 1.1h-3.308a1.108 1.108 0 0 1-1.1-1.1v-3.311a1.107 1.107 0 0 1 1.1-1.1z" class="cls-17" transform="translate(-88.879 -352.428)"/>
            <path id="Path_238" d="M124.621 352.428h3.3a1.1 1.1 0 0 1 1.1 1.1v3.311a1.1 1.1 0 0 1-1.1 1.1h-3.3a1.1 1.1 0 0 1-1.1-1.1v-3.311a1.1 1.1 0 0 1 1.1-1.1z" class="cls-17" transform="translate(-89.66 -352.428)"/>
        </g>
        <path id="Path_239" d="M165.174 79.131a.582.582 0 0 1 1.164 0v2.626a.582.582 0 1 1-1.164 0zm-3.983 2.137a.585.585 0 0 1 .827-.827l1.856 1.854a.582.582 0 1 1-.819.828zm-1.3 4.32A.584.584 0 0 1 159.3 85a.577.577 0 0 1 .586-.577h2.626a.575.575 0 0 1 .578.577.583.583 0 0 1-.578.586zm2.128 3.983a.585.585 0 0 1-.827-.827l1.863-1.863a.583.583 0 0 1 .819 0 .577.577 0 0 1 0 .827zm4.321 1.3a.582.582 0 1 1-1.164 0v-2.625a.582.582 0 0 1 1.164 0zm3.983-2.129a.585.585 0 0 1-.828.827l-1.855-1.863a.577.577 0 0 1 0-.827.593.593 0 0 1 .828 0zm1.309-4.32a.575.575 0 0 1 .578.577.583.583 0 0 1-.578.586H169a.584.584 0 0 1-.586-.586.577.577 0 0 1 .586-.577zm-2.137-3.983a.585.585 0 0 1 .828.827l-1.855 1.855a.591.591 0 0 1-.828 0 .578.578 0 0 1 0-.828z" class="cls-1" transform="translate(-6.686 -1.509)"/>
        <g id="Group_81" transform="translate(184.418 190.185)">
            <path id="Path_240" d="M194.6 199.87h3.308a1.107 1.107 0 0 1 1.1 1.1v3.308a1.108 1.108 0 0 1-1.1 1.1H194.6a1.108 1.108 0 0 1-1.1-1.1v-3.308a1.108 1.108 0 0 1 1.1-1.1z" class="cls-18" transform="translate(-193.496 -199.87)"/>
            <path id="Path_241" d="M206.67 199.87h3.3a1.1 1.1 0 0 1 1.1 1.1v3.308a1.1 1.1 0 0 1-1.1 1.1h-3.3a1.1 1.1 0 0 1-1.1-1.1v-3.308a1.1 1.1 0 0 1 1.1-1.1z" class="cls-18" transform="translate(-194.277 -199.87)"/>
            <path id="Path_242" d="M218.735 199.87h3.309a1.107 1.107 0 0 1 1.1 1.1v3.308a1.108 1.108 0 0 1-1.1 1.1h-3.309a1.108 1.108 0 0 1-1.1-1.1v-3.308a1.108 1.108 0 0 1 1.1-1.1z" class="cls-18" transform="translate(-195.058 -199.87)"/>
            <path id="Path_243" d="M230.808 199.87h3.3a1.106 1.106 0 0 1 1.1 1.1v3.308a1.107 1.107 0 0 1-1.1 1.1h-3.3a1.1 1.1 0 0 1-1.1-1.1v-3.308a1.1 1.1 0 0 1 1.1-1.1z" class="cls-18" transform="translate(-195.839 -199.87)"/>
        </g>
        <g id="Group_82" transform="translate(433.58 58.507)">
            <path id="Path_244" d="M531.841 143.623v72.037h-11.43a14.883 14.883 0 0 0-14.856 14.82 14.887 14.887 0 0 0 14.856 14.82h11.43v147.668H466.41V61.293a57 57 0 0 1 32.26 51.178 31.284 31.284 0 0 0 31.236 31.151z" class="cls-4" transform="translate(-460.698 -58.9)"/>
            <path id="Path_245" d="M471.724 64.31V392.8H460.3V58.734a56.859 56.859 0 0 1 11.421 5.576z" class="cls-7" transform="translate(-460.303 -58.734)"/>
            <path id="Path_246" d="M486.811 77.489v315.826h-11.428V66.651a57.93 57.93 0 0 1 11.428 10.838z" class="cls-7" transform="translate(-461.279 -59.246)"/>
            <path id="Path_247" d="M501.9 123.894v270.425h-11.429V82.168a56.307 56.307 0 0 1 9.756 31.7 30.768 30.768 0 0 0 1.671 10.026z" class="cls-7" transform="translate(-462.255 -60.25)"/>
            <path id="Path_248" d="M516.985 144.366v77.609a14.9 14.9 0 0 0-8.9 13.6 14.9 14.9 0 0 0 8.9 13.6V398.49h-11.428V133.106a31.6 31.6 0 0 0 11.428 11.26z" class="cls-7" transform="translate(-463.231 -64.421)"/>
            <path id="Path_249" d="M532.072 149.329v72.258h-8.153a14.663 14.663 0 0 0-3.275.369v-75.343a31.079 31.079 0 0 0 11.428 2.716zm0 101.974v148.061h-11.428v-148.43a14.663 14.663 0 0 0 3.275.369z" class="cls-7" transform="translate(-464.207 -65.295)"/>
        </g>
        <g id="Group_83" transform="translate(347.347 366.135)">
            <path id="Path_250" d="M369.042 388.578h3.309a1.1 1.1 0 0 1 1.1 1.1v3.3a1.1 1.1 0 0 1-1.1 1.1h-3.309a1.1 1.1 0 0 1-1.1-1.1v-3.3a1.1 1.1 0 0 1 1.1-1.1z" class="cls-18" transform="translate(-367.941 -388.578)"/>
            <path id="Path_251" d="M381.115 388.578h3.3a1.1 1.1 0 0 1 1.1 1.1v3.3a1.1 1.1 0 0 1-1.1 1.1h-3.3a1.1 1.1 0 0 1-1.1-1.1v-3.3a1.1 1.1 0 0 1 1.1-1.1z" class="cls-18" transform="translate(-368.722 -388.578)"/>
            <path id="Path_252" d="M393.18 388.578h3.31a1.1 1.1 0 0 1 1.1 1.1v3.3a1.1 1.1 0 0 1-1.1 1.1h-3.31a1.1 1.1 0 0 1-1.1-1.1v-3.3a1.1 1.1 0 0 1 1.1-1.1z" class="cls-18" transform="translate(-369.503 -388.578)"/>
            <path id="Path_253" d="M405.252 388.578h3.3a1.1 1.1 0 0 1 1.1 1.1v3.3a1.1 1.1 0 0 1-1.1 1.1h-3.3a1.1 1.1 0 0 1-1.1-1.1v-3.3a1.1 1.1 0 0 1 1.1-1.1z" class="cls-18" transform="translate(-370.284 -388.578)"/>
        </g>
        <g id="Group_84" transform="translate(366.259 67.327)">
            <path id="Path_254" d="M389.289 68.164h3.31a1.1 1.1 0 0 1 1.1 1.1v3.3a1.1 1.1 0 0 1-1.1 1.1h-3.31a1.1 1.1 0 0 1-1.1-1.1v-3.3a1.1 1.1 0 0 1 1.1-1.1z" class="cls-18" transform="translate(-388.189 -68.164)"/>
            <path id="Path_255" d="M401.363 68.164h3.3a1.1 1.1 0 0 1 1.1 1.1v3.3a1.1 1.1 0 0 1-1.1 1.1h-3.3a1.1 1.1 0 0 1-1.1-1.1v-3.3a1.1 1.1 0 0 1 1.1-1.1z" class="cls-18" transform="translate(-388.97 -68.164)"/>
            <path id="Path_256" d="M413.43 68.164h3.3a1.1 1.1 0 0 1 1.109 1.1v3.3a1.105 1.105 0 0 1-1.109 1.1h-3.3a1.1 1.1 0 0 1-1.1-1.1v-3.3a1.1 1.1 0 0 1 1.1-1.1z" class="cls-18" transform="translate(-389.751 -68.164)"/>
            <path id="Path_257" d="M425.492 68.164h3.31a1.1 1.1 0 0 1 1.1 1.1v3.3a1.1 1.1 0 0 1-1.1 1.1h-3.31a1.1 1.1 0 0 1-1.1-1.1v-3.3a1.1 1.1 0 0 1 1.1-1.1z" class="cls-18" transform="translate(-390.531 -68.164)"/>
        </g>
        <g id="Group_85" transform="translate(524.383 270.442)">
            <path id="Path_258" d="M558.721 285.887h3.3a1.1 1.1 0 0 1 1.1 1.1v3.3a1.108 1.108 0 0 1-1.1 1.1h-3.3a1.1 1.1 0 0 1-1.1-1.1v-3.3a1.1 1.1 0 0 1 1.1-1.1z" class="cls-18" transform="translate(-557.621 -285.887)"/>
            <path id="Path_259" d="M570.785 285.887h3.308a1.1 1.1 0 0 1 1.1 1.1v3.3a1.109 1.109 0 0 1-1.1 1.1h-3.308a1.108 1.108 0 0 1-1.1-1.1v-3.3a1.1 1.1 0 0 1 1.1-1.1z" class="cls-18" transform="translate(-558.401 -285.887)"/>
            <path id="Path_260" d="M582.852 285.887h3.308a1.1 1.1 0 0 1 1.1 1.1v3.3a1.109 1.109 0 0 1-1.1 1.1h-3.308a1.108 1.108 0 0 1-1.1-1.1v-3.3a1.1 1.1 0 0 1 1.1-1.1z" class="cls-18" transform="translate(-559.182 -285.887)"/>
            <path id="Path_261" d="M594.924 285.887h3.3a1.1 1.1 0 0 1 1.1 1.1v3.3a1.1 1.1 0 0 1-1.1 1.1h-3.3a1.109 1.109 0 0 1-1.1-1.1v-3.3a1.1 1.1 0 0 1 1.1-1.1z" class="cls-18" transform="translate(-559.963 -285.887)"/>
        </g>
        <g id="Group_86" transform="translate(94.374 251.307)">
            <path id="Path_262" d="M147.247 398.513a109.684 109.684 0 0 1 2.569-23.035l.049-.2c.089-.354.361-1.029 1.068-.835.947.255 8.707 4.617 15.959 12s7.132-3.72.835-8.088-12.722-6.208-14.65-7.879a4.066 4.066 0 0 1-1.59-3.58c1.5-8.458 2.625-17.124 3.413-25.661l.008-.009s.361-1.861 2.128.322 8.634 9.792 13.975 10.288.45-7.959-7.092-12.111-8.464-5.035-8.392-6.047v-.009c.482-6.722.763-13.3.867-19.565s.3-1.125 1.3-.312 8.5 9.4 12.5 8.489.112-8.225-6.265-10.785-7.485-3.333-7.494-4.282c-.064-18.545-1.7-33.483-4.168-39.836-2.563-6.618 13.717 8.352 28.768 32.785 1.293 2.225 1.2 3.5.37 6.2-.9 2.892-1.888 9.411.473 7.895s2.682-7.245 2.875-7.349a.212.212 0 0 1 .289.048c2.465 4.37 4.835 8.971 7.035 13.75 2.265 5.365-.763 9.027-4.98 14.263-4.369 5.429-3.581 11.2 1.061 8.77s6.8-13.7 7.188-14.006c.354-.274.611.136.651.218a131.5 131.5 0 0 1 7 24.559c.313 4.177-3.092 7.637-6.666 13.284-3.6 5.693-.835 9.124 2.008 8.345s4.754-7.718 5.373-8.168c.571-.418.747-.065.771 0a79.041 79.041 0 0 1-2.635 24.23 161.074 161.074 0 0 1-6.031 18.033h-36.853z" class="cls-19" transform="translate(-100.279 -265.807)"/>
            <path id="Path_263" d="M191.358 411.8c-4.836-64.527-21.413-120.416-21.492-120.705a1.456 1.456 0 1 0-2.8.818c.08.282 16.569 55.842 21.4 119.887z" class="cls-20" transform="translate(-101.558 -267.376)"/>
            <path id="Path_264" fill="#a8a8e5" fill-rule="evenodd" d="M222.874 325.048c27.95-16.553 35.669 17.894 30.006 33.5-4.2 11.549-19.09 36.855-29.58 55.232h-38.991c5.059-38.617 18-76.549 38.565-88.733z" transform="translate(-102.677 -269.356)"/>
            <path id="Path_265" fill="#dbdbfd" fill-rule="evenodd" d="M202.461 414.455c14.224-45.145 36-82.494 36.118-82.693a1.589 1.589 0 0 1 1.8-.619.952.952 0 0 1 .635 1.407c-.113.192-21.7 37.2-35.86 81.905z" transform="translate(-103.852 -270.029)"/>
            <path id="Path_266" d="M97.464 303.025c8.618-32.575 38.992-14.737 52.035 13.107 7.365 15.718 20.118 57.185 34.471 95.376h-36.446l-10.835-6.081c-25.211-47.144-42.671-89.391-39.226-102.4z" class="cls-18" transform="translate(-97.03 -267.082)"/>
            <path id="Path_267" d="M157.58 404.547A601.7 601.7 0 0 1 115.35 300.7a1.355 1.355 0 0 1 2.6-.756c.08.282 15.958 56.333 46.245 111.211z" class="cls-12" transform="translate(-98.212 -267.953)"/>
        </g>
        <g id="Group_87" transform="translate(483.106 223.636)">
            <path id="Rectangle_37" d="M0 0H34.663V10.504H0z" class="cls-3" transform="translate(91.931 69.116)"/>
            <path id="Rectangle_38" d="M0 0H34.674V10.504H0z" class="cls-3" transform="translate(76.765 81.726)"/>
            <path id="Path_268" d="M634.4 323.6h21.935a73.81 73.81 0 0 1 1.133 10.5H634.4z" class="cls-4" transform="translate(-521.312 -241.876)"/>
            <path id="Rectangle_39" d="M0 0H34.663V10.507H0z" class="cls-3" transform="translate(91.931 94.325)"/>
            <path id="Path_269" d="M650.609 337.072h7.944c.008.194.008.387.008.579a73.524 73.524 0 0 1-.669 9.929h-7.283z" class="cls-4" transform="translate(-522.361 -242.747)"/>
            <path id="Path_270" d="M634.4 350.555h22.126a73.778 73.778 0 0 1-2.537 10.505H634.4z" class="cls-4" transform="translate(-521.312 -243.619)"/>
            <path id="Path_271" d="M571.838 362.434a.586.586 0 0 1 1.173 0v2.624a.586.586 0 1 1-1.173 0zm-3.977 2.128a.579.579 0 0 1 0-.828.593.593 0 0 1 .828 0l1.856 1.863a.585.585 0 1 1-.827.828zm-1.308 4.329a.586.586 0 1 1 0-1.173h2.625a.586.586 0 1 1 0 1.173zm2.135 3.975a.585.585 0 0 1-.828-.828l1.857-1.856a.585.585 0 0 1 .827.828zm4.322 1.309a.586.586 0 0 1-1.173 0v-2.628a.586.586 0 0 1 1.173 0zm3.975-2.137a.579.579 0 0 1 0 .828.57.57 0 0 1-.82 0l-1.861-1.856a.585.585 0 0 1 .826-.828zm1.309-4.32a.586.586 0 0 1 0 1.173h-2.628a.586.586 0 0 1 0-1.173zm-2.13-3.984a.583.583 0 0 1 .82.828l-1.856 1.863a.585.585 0 1 1-.826-.828z" class="cls-1" transform="translate(-516.884 -244.35)"/>
            <path id="Path_272" d="M638.958 302.266c8.062 26.174 11.074 40.4 15.4 52.166a73.39 73.39 0 0 0 3.31-21.847v-37.554c0-68.275-28.658-25.017-18.713 7.236z" class="cls-19" transform="translate(-521.471 -237.681)"/>
            <path id="Path_273" d="M531.047 408.841a101.089 101.089 0 0 1-16.536-33.019c-6.675-23.58 20.721 2.547 42.334 33.019z" class="cls-19" transform="translate(-513.489 -244.664)"/>
            <path id="Path_274" d="M570.875 405.333c-6.746-11.407-13.443-26.417-14.5-42.215-2.216-33.242-2.852-43.691-9.186-49.072-5.429-4.618 60.059-3.63 87.518 69.256a74.576 74.576 0 0 1-30.848 22.031z" class="cls-19" transform="translate(-515.649 -241.156)"/>
            <path id="Path_275" d="M556.974 312.891c24.793 22.553 44.293 55.9 58.59 87.021-.682.4-1.374.8-2.065 1.171-14.649-31.956-34.8-66.266-60.517-88.578 1.182.056 2.523.184 3.992.385z" class="cls-20" transform="translate(-516.044 -241.158)"/>
            <path id="Path_276" d="M628.473 271.437c5.471 13.468 13.533 43.674 23.066 76.187a74.364 74.364 0 0 1-26.961 42.029c-23.1-32.979-43.21-70.444-50.727-100.153-15.122-59.785 31.926-74.034 54.622-18.063z" class="cls-4" transform="translate(-517.204 -236.222)"/>
            <path id="Path_277" d="M639.269 377.507c-31.981-55.923-46.878-121.538-46.944-121.819a1.2 1.2 0 0 1 2.329-.539c.066.282 14.755 64.967 46.157 120.3-.506.69-1.021 1.382-1.542 2.055z" class="cls-23" transform="translate(-518.588 -237.387)"/>
            <path id="Path_278" d="M605.1 407.94a79.234 79.234 0 0 0-5.833-17.2c-10.658-22.374-37.3-31.08-44.885-27.676-6.194 2.788-18.666 20.04-9.357 45.5h58.5c.529-.2 1.052-.4 1.574-.619z" class="cls-23" transform="translate(-515.314 -244.382)"/>
            <path id="Path_279" fill="#ada5d8" fill-rule="evenodd" d="M590.227 408.766c1.357-3.655 4.161-11.686 4.528-16.538a.669.669 0 0 0-.625-.73.68.68 0 0 0-.73.627c-.336 4.521-2.908 11.99-4.289 15.757a151.565 151.565 0 0 0-11.532-19.051 62.083 62.083 0 0 0 2.152-16.36.683.683 0 0 0-1.365.05 59.2 59.2 0 0 1-1.823 14.873 153.325 153.325 0 0 0-18.98-21.484 1.361 1.361 0 0 0-1.863 1.984c3.646 3.421 6.987 6.9 10.063 10.4a41.343 41.343 0 0 0-11.163-.617.688.688 0 0 0-.612.745.678.678 0 0 0 .746.6 41.939 41.939 0 0 1 12.483.948 148.134 148.134 0 0 1 12.28 16.561c-4.866-.468-16.818-1.253-28.415.875a.682.682 0 1 0 .251 1.341c12.391-2.282 25.225-1.173 29.089-.747 2.28 3.655 4.3 7.262 6.094 10.763z" transform="translate(-515.885 -244.589)"/>
        </g>
        <g id="Group_89" transform="translate(508.348 96.841)">
            <g id="Group_88" transform="translate(0 6.802)">
                <path id="Path_280" d="M541.729 106.993h3.758a1.255 1.255 0 0 1 1.253 1.253V112a1.255 1.255 0 0 1-1.253 1.253h-3.758a1.253 1.253 0 0 1-1.252-1.253v-3.751a1.253 1.253 0 0 1 1.252-1.253z" class="cls-17" transform="translate(-540.477 -106.993)"/>
                <path id="Path_281" d="M555.45 106.993h3.75a1.255 1.255 0 0 1 1.253 1.253V112a1.255 1.255 0 0 1-1.253 1.253h-3.75A1.254 1.254 0 0 1 554.2 112v-3.751a1.254 1.254 0 0 1 1.253-1.253z" class="cls-17" transform="translate(-541.365 -106.993)"/>
                <path id="Path_282" d="M569.164 106.993h3.759a1.253 1.253 0 0 1 1.251 1.253V112a1.253 1.253 0 0 1-1.251 1.253h-3.759A1.251 1.251 0 0 1 567.92 112v-3.751a1.251 1.251 0 0 1 1.244-1.253z" class="cls-17" transform="translate(-542.253 -106.993)"/>
                <path id="Path_283" d="M582.886 106.993h3.759a1.251 1.251 0 0 1 1.244 1.253V112a1.251 1.251 0 0 1-1.244 1.253h-3.759a1.255 1.255 0 0 1-1.253-1.253v-3.751a1.255 1.255 0 0 1 1.253-1.253z" class="cls-17" transform="translate(-543.14 -106.993)"/>
            </g>
            <path id="Path_284" d="M644.028 100.387a.667.667 0 0 1 1.334 0v2.987a.667.667 0 0 1-1.334 0zm-4.521 2.425a.668.668 0 0 1 0-.939.653.653 0 0 1 .939 0l2.112 2.112a.664.664 0 0 1-.939.94zm-1.487 4.908a.663.663 0 1 1 0-1.325h2.989a.663.663 0 0 1 0 1.325zm2.426 4.53a.664.664 0 0 1-.939-.939l2.112-2.113a.664.664 0 0 1 .939.94zm4.916 1.486a.667.667 0 0 1-1.334 0v-2.989a.667.667 0 0 1 1.334 0zm4.521-2.425a.664.664 0 0 1-.939.939l-2.114-2.112a.664.664 0 0 1 .939-.94zm1.485-4.916a.663.663 0 1 1 0 1.325h-2.987a.663.663 0 0 1 0-1.325zm-2.424-4.521a.653.653 0 0 1 .939 0 .671.671 0 0 1 0 .939l-2.114 2.113a.664.664 0 0 1-.939-.94z" class="cls-25" transform="translate(-546.745 -99.72)"/>
        </g>
        <path id="Path_285" d="M92.059 226.53a.663.663 0 1 1 1.325 0v2.987a.663.663 0 0 1-1.325 0zm-4.521 2.425a.654.654 0 0 1 0-.94.668.668 0 0 1 .939 0l2.105 2.113a.662.662 0 1 1-.933.939zm-1.486 4.916a.667.667 0 0 1 0-1.334h2.988a.667.667 0 0 1 0 1.334zm2.425 4.521a.666.666 0 0 1-.939 0 .654.654 0 0 1 0-.94l2.112-2.112a.662.662 0 0 1 .933.94zm4.908 1.485a.663.663 0 1 1-1.325 0v-2.987a.663.663 0 1 1 1.325 0zm4.53-2.425a.664.664 0 1 1-.939.94l-2.113-2.112a.665.665 0 0 1 .94-.94zm1.486-4.915a.667.667 0 0 1 0 1.334h-2.988a.667.667 0 1 1 0-1.334zm-2.425-4.522a.664.664 0 0 1 .939.94l-2.115 2.112a.664.664 0 0 1-.94-.939z" class="cls-25" transform="translate(-1.903 -11.436)"/>
        <g id="Group_90" transform="translate(55.968 388.494)">
            <path id="Path_286" fill="#f16500" fill-rule="evenodd" d="M63.451 412.484h581.025a7.511 7.511 0 0 1 7.492 7.493 7.519 7.519 0 0 1-7.492 7.5h-25.254a4.169 4.169 0 0 0-4.158 4.163 4.175 4.175 0 0 0 4.158 4.164h9.236a5.218 5.218 0 0 1 5.2 5.207 5.215 5.215 0 0 1-5.2 5.2H80.3a5.214 5.214 0 0 1-5.2-5.2 5.217 5.217 0 0 1 5.2-5.207h7.271a4.175 4.175 0 0 0 4.158-4.164 4.17 4.17 0 0 0-4.158-4.163h-24.12a7.512 7.512 0 0 1-7.483-7.5 7.51 7.51 0 0 1 7.483-7.493zm3.9 33.728a5.008 5.008 0 0 1-4.99-5v-.412a5.008 5.008 0 0 1 4.99-5 5 5 0 0 1 4.992 5v.412a5 5 0 0 1-4.992 5z" transform="translate(-55.968 -412.484)"/>
        </g>
    </g>
</svg>
